<svg xmlns="http://www.w3.org/2000/svg"
 xmlns:xlink="http://www.w3.org/1999/xlink"
 width="35px" height="26px"  viewBox="0 0 35 26">
<path fill-rule="evenodd"  fill="#ffffff"
 d="M33.949768,23.503052 C33.949768,23.504272 33.94995,23.505493 33.94995,23.505493 C33.94995,24.053833 33.504456,24.497314 32.955017,24.497314 C32.955017,24.497314 25.543152,24.497314 25.543152,24.497314 C26.09851,24.374512 26.514648,23.8833 26.514648,23.292114 C26.514648,23.290894 26.514282,23.290894 26.514282,23.289673 C26.514282,23.289673 26.515198,23.289673 26.515198,23.289673 C26.515198,23.289673 26.515198,18.785889 23.213562,17.148071 C21.802307,16.448242 21.709045,16.581787 21.0083,16.416016 C21.0083,16.416016 21.027527,14.46582 21.027527,14.46582 C21.027527,14.46582 20.256775,13.878052 20.017334,12.035156 C19.534912,12.174561 19.375793,11.471313 19.34729,11.023071 C19.321472,10.591553 19.068176,9.239624 19.656555,9.362427 C19.536133,8.460083 19.449707,7.6469727 19.492065,7.215454 C19.63971,5.702759 21.101562,4.1220703 23.353333,4.0075684 C26.001953,4.1220703 27.05127,5.701538 27.198303,7.2143555 C27.24121,7.645874 27.14679,8.460083 27.026306,9.360107 C27.61499,9.239624 27.35907,10.587891 27.330505,11.02063 C27.304504,11.468872 27.14154,12.1698 26.660645,12.0303955 C26.420105,13.873291 25.649353,14.456299 25.649353,14.456299 C25.649353,14.456299 25.66742,16.404175 25.66742,16.404175 C25.66742,16.404175 26.154724,16.681885 28.212585,17.53064 C30.27069,18.381836 29.625,17.74524 31.301453,18.576172 C33.950317,19.88977 33.950317,23.503052 33.950317,23.503052 C33.950317,23.503052 33.949768,23.503052 33.949768,23.503052 ZM19.02301,16.840454 C21.285156,17.775024 20.5755,17.075317 22.418213,17.989624 C25.329834,19.433228 25.329834,23.405273 25.329834,23.405273 C25.329834,23.405273 25.32904,23.405273 25.32904,23.405273 C25.32904,23.405273 25.329346,23.406494 25.329346,23.407715 C25.329346,24.009644 24.83966,24.497314 24.235779,24.497314 C24.235779,24.497314 3.0935059,24.497314 3.0935059,24.497314 C2.489502,24.497314 1.9998779,24.009644 1.9998779,23.407715 C1.9998779,23.406494 2.000122,23.405273 2.000122,23.405273 C2.000122,23.405273 1.9994507,23.405273 1.9994507,23.405273 C1.9994507,23.405273 1.9994507,19.433228 4.911255,17.988403 C6.753662,17.075317 6.0443726,17.816772 8.306274,16.882202 C10.568237,15.94873 11.104126,15.622192 11.104126,15.622192 C11.104126,15.622192 11.125427,13.470459 11.125427,13.470459 C11.125427,13.470459 10.278198,12.824341 10.015015,10.800171 C9.484802,10.952759 9.309814,10.179077 9.278564,9.6866455 C9.250183,9.21228 8.971863,7.7269287 9.618469,7.8615723 C9.486145,6.869751 9.391052,5.975708 9.437744,5.5030518 C9.599915,3.8394775 11.206665,2.1026611 13.681824,1.9750977 C16.5932,2.1014404 17.746521,3.8382568 17.908081,5.500122 C17.955261,5.9744873 17.851562,6.8686523 17.719177,7.859253 C18.36621,7.7269287 18.0849,9.208618 18.053345,9.684326 C18.024841,10.176636 17.845703,10.946777 17.317139,10.794189 C17.052795,12.81958 16.205566,13.459717 16.205566,13.459717 C16.205566,13.459717 16.225464,15.601807 16.225464,15.601807 C16.225464,15.601807 16.761047,15.905884 19.02301,16.840454 Z"/>
</svg>