<svg xmlns="http://www.w3.org/2000/svg"
 xmlns:xlink="http://www.w3.org/1999/xlink"
 width="32px" height="33px"  viewBox="0 0 32 33">
<path fill-rule="evenodd"  fill="#ffffff"
 d="M31.0,25.999512 C31.0,26.651367 30.581238,27.201172 29.999878,27.407715 C29.999878,27.407715 29.999878,29.091309 29.999878,29.091309 C30.581238,29.297852 31.0,29.847656 31.0,30.499512 C31.0,31.328125 30.32837,31.999512 29.5,31.999512 C28.84784,31.999512 28.298523,31.581055 28.091797,30.999512 C28.091797,30.999512 26.408203,30.999512 26.408203,30.999512 C26.201477,31.581055 25.65216,31.999512 25.0,31.999512 C24.347778,31.999512 23.798462,31.581055 23.591919,30.999512 C23.591919,30.999512 21.908142,30.999512 21.908142,30.999512 C21.701416,31.581055 21.1521,31.999512 20.499939,31.999512 C19.84784,31.999512 19.2984,31.581055 19.091858,30.999512 C19.091858,30.999512 17.408203,30.999512 17.408203,30.999512 C17.201538,31.581055 16.6521,31.999512 16.0,31.999512 C15.347778,31.999512 14.79834,31.581055 14.591797,30.999512 C14.591797,30.999512 12.908142,30.999512 12.908142,30.999512 C12.701477,31.581055 12.152161,31.999512 11.499939,31.999512 C10.8479,31.999512 10.298462,31.581055 10.091858,30.999512 C10.091858,30.999512 8.408081,30.999512 8.408081,30.999512 C8.201538,31.581055 7.6520996,31.999512 6.999878,31.999512 C6.3478394,31.999512 5.798401,31.581055 5.591797,30.999512 C5.591797,30.999512 3.908081,30.999512 3.908081,30.999512 C3.701477,31.581055 3.1521606,31.999512 2.5,31.999512 C1.6715088,31.999512 1.0,31.328125 1.0,30.499512 C1.0,29.847656 1.4187622,29.297852 2.0,29.091309 C2.0,29.091309 2.0,27.407715 2.0,27.407715 C1.4187622,27.201172 1.0,26.651367 1.0,25.999512 C1.0,25.347168 1.4187622,24.797852 2.0,24.591797 C2.0,24.591797 2.0,22.907715 2.0,22.907715 C1.4187622,22.701172 1.0,22.151367 1.0,21.5 C1.0,20.847656 1.4187622,20.29834 2.0,20.091309 C2.0,20.091309 2.0,18.408203 2.0,18.408203 C1.4187622,18.201172 1.0,17.651855 1.0,17.0 C1.0,16.347168 1.4187622,15.79834 2.0,15.591309 C2.0,15.591309 2.0,13.907715 2.0,13.907715 C1.4187622,13.701172 1.0,13.151855 1.0,12.499512 C1.0,11.847656 1.4187622,11.297852 2.0,11.091797 C2.0,11.091797 2.0,9.407715 2.0,9.407715 C1.4187622,9.201172 1.0,8.651367 1.0,7.9995117 C1.0,7.347168 1.4187622,6.7978516 2.0,6.591797 C2.0,6.591797 2.0,4.907715 2.0,4.907715 C1.4187622,4.701172 1.0,4.151367 1.0,3.5 C1.0,2.6713867 1.6715088,1.9995117 2.5,1.9995117 C3.1521606,1.9995117 3.701477,2.4179688 3.908081,2.9990234 C3.908081,2.9990234 5.591797,2.9990234 5.591797,2.9990234 C5.798401,2.4179688 6.3478394,1.9995117 6.999878,1.9995117 C7.6520996,1.9995117 8.201538,2.4179688 8.408081,2.9990234 C8.408081,2.9990234 10.091858,2.9990234 10.091858,2.9990234 C10.298462,2.4179688 10.8479,1.9995117 11.499939,1.9995117 C12.152161,1.9995117 12.701477,2.4179688 12.908142,2.9990234 C12.908142,2.9990234 14.591797,2.9990234 14.591797,2.9990234 C14.79834,2.4179688 15.347778,1.9995117 16.0,1.9995117 C16.6521,1.9995117 17.201538,2.4179688 17.408203,2.9990234 C17.408203,2.9990234 19.091858,2.9990234 19.091858,2.9990234 C19.2984,2.4179688 19.84784,1.9995117 20.499939,1.9995117 C21.1521,1.9995117 21.701416,2.4179688 21.908142,2.9990234 C21.908142,2.9990234 23.591919,2.9990234 23.591919,2.9990234 C23.798462,2.4179688 24.347778,1.9995117 25.0,1.9995117 C25.65216,1.9995117 26.201477,2.4179688 26.408203,2.9990234 C26.408203,2.9990234 28.091797,2.9990234 28.091797,2.9990234 C28.298523,2.4179688 28.84784,1.9995117 29.5,1.9995117 C30.32837,1.9995117 31.0,2.6713867 31.0,3.5 C31.0,4.151367 30.581238,4.701172 29.999878,4.907715 C29.999878,4.907715 29.999878,6.591797 29.999878,6.591797 C30.581238,6.7978516 31.0,7.347168 31.0,7.9995117 C31.0,8.651367 30.581238,9.201172 29.999878,9.407715 C29.999878,9.407715 29.999878,11.091797 29.999878,11.091797 C30.581238,11.297852 31.0,11.847656 31.0,12.499512 C31.0,13.151855 30.581238,13.701172 29.999878,13.907715 C29.999878,13.907715 29.999878,15.591309 29.999878,15.591309 C30.581238,15.79834 31.0,16.347168 31.0,17.0 C31.0,17.651855 30.581238,18.201172 29.999878,18.408203 C29.999878,18.408203 29.999878,20.091309 29.999878,20.091309 C30.581238,20.29834 31.0,20.847656 31.0,21.5 C31.0,22.151367 30.581238,22.701172 29.999878,22.907715 C29.999878,22.907715 29.999878,24.591797 29.999878,24.591797 C30.581238,24.797852 31.0,25.347168 31.0,25.999512 ZM27.000061,5.9990234 C27.000061,5.9990234 4.999939,5.9990234 4.999939,5.9990234 C4.999939,5.9990234 4.999939,28.0 4.999939,28.0 C4.999939,28.0 27.000061,28.0 27.000061,28.0 C27.000061,28.0 27.000061,5.9990234 27.000061,5.9990234 ZM14.0,22.0 C14.0,22.0 20.999939,13.5 20.999939,13.5 C20.999939,13.5 25.5,20.499023 25.5,20.499023 C25.5,20.499023 25.5,26.499512 25.5,26.499512 C25.5,26.499512 6.499939,26.499512 6.499939,26.499512 C6.499939,26.499512 12.499939,20.499023 12.499939,20.499023 C12.499939,20.499023 14.0,22.0 14.0,22.0 ZM10.999939,14.999512 C9.343079,14.999512 8.0,13.656738 8.0,11.999512 C8.0,10.342773 9.343079,8.999512 10.999939,8.999512 C12.65686,8.999512 14.0,10.342773 14.0,11.999512 C14.0,13.656738 12.65686,14.999512 10.999939,14.999512 Z"/>
</svg>