<svg xmlns="http://www.w3.org/2000/svg"
 xmlns:xlink="http://www.w3.org/1999/xlink"
 width="32px" height="35px"  viewBox="0 0 32 35">
<path fill-rule="evenodd"  fill="#95e1d3"
 d="M28.499939,18.49707 C28.499939,18.49707 25.5,18.49707 25.5,18.49707 C24.67163,18.49707 24.0,17.82666 24.0,16.997559 C24.0,16.997559 24.0,10.998047 24.0,10.998047 C24.0,10.169922 24.67163,9.498535 25.5,9.498535 C25.5,9.498535 28.499939,9.498535 28.499939,9.498535 C29.32837,9.498535 30.0,10.169922 30.0,10.998047 C30.0,10.998047 30.0,16.997559 30.0,16.997559 C30.0,17.82666 29.32837,18.49707 28.499939,18.49707 ZM25.5,3.4970703 C25.5,2.6694336 26.171509,1.9980469 26.999939,1.9980469 C27.82837,1.9980469 28.499939,2.6694336 28.499939,3.4970703 C28.499939,3.4970703 28.499939,7.998047 28.499939,7.998047 C28.499939,7.998047 25.5,7.998047 25.5,7.998047 C25.5,7.998047 25.5,3.4970703 25.5,3.4970703 ZM17.5,26.497559 C17.5,26.497559 14.499878,26.497559 14.499878,26.497559 C13.67157,26.497559 12.999939,25.82666 12.999939,24.998535 C12.999939,24.998535 12.999939,18.998047 12.999939,18.998047 C12.999939,18.169922 13.67157,17.497559 14.499878,17.497559 C14.499878,17.497559 17.5,17.497559 17.5,17.497559 C18.32843,17.497559 18.999939,18.169922 18.999939,18.998047 C18.999939,18.998047 18.999939,24.998535 18.999939,24.998535 C18.999939,25.82666 18.32843,26.497559 17.5,26.497559 ZM14.499878,3.4970703 C14.499878,2.6694336 15.17157,1.9980469 16.0,1.9980469 C16.82843,1.9980469 17.5,2.6694336 17.5,3.4970703 C17.5,3.4970703 17.5,15.998047 17.5,15.998047 C17.5,15.998047 14.499878,15.998047 14.499878,15.998047 C14.499878,15.998047 14.499878,3.4970703 14.499878,3.4970703 ZM6.5,22.498047 C6.5,22.498047 3.499939,22.498047 3.499939,22.498047 C2.6715088,22.498047 2.0,21.826172 2.0,20.99707 C2.0,20.99707 2.0,14.99707 2.0,14.99707 C2.0,14.169434 2.6715088,13.498047 3.499939,13.498047 C3.499939,13.498047 6.5,13.498047 6.5,13.498047 C7.328369,13.498047 8.0,14.169434 8.0,14.99707 C8.0,14.99707 8.0,20.99707 8.0,20.99707 C8.0,21.826172 7.328369,22.498047 6.5,22.498047 ZM3.499939,3.4970703 C3.499939,2.6694336 4.171509,1.9980469 4.999939,1.9980469 C5.828369,1.9980469 6.5,2.6694336 6.5,3.4970703 C6.5,3.4970703 6.5,11.998535 6.5,11.998535 C6.5,11.998535 3.499939,11.998535 3.499939,11.998535 C3.499939,11.998535 3.499939,3.4970703 3.499939,3.4970703 ZM6.5,32.49707 C6.5,33.32617 5.828369,33.998047 4.999939,33.998047 C4.171509,33.998047 3.499939,33.32617 3.499939,32.49707 C3.499939,32.49707 3.499939,23.998047 3.499939,23.998047 C3.499939,23.998047 6.5,23.998047 6.5,23.998047 C6.5,23.998047 6.5,32.49707 6.5,32.49707 ZM17.5,32.49707 C17.5,33.32617 16.82843,33.998047 16.0,33.998047 C15.17157,33.998047 14.499878,33.32617 14.499878,32.49707 C14.499878,32.49707 14.499878,27.99707 14.499878,27.99707 C14.499878,27.99707 17.5,27.99707 17.5,27.99707 C17.5,27.99707 17.5,32.49707 17.5,32.49707 ZM28.499939,32.49707 C28.499939,33.32617 27.82837,33.998047 26.999939,33.998047 C26.171509,33.998047 25.5,33.32617 25.5,32.49707 C25.5,32.49707 25.5,19.998535 25.5,19.998535 C25.5,19.998535 28.499939,19.998535 28.499939,19.998535 C28.499939,19.998535 28.499939,32.49707 28.499939,32.49707 Z"/>
</svg>