<svg xmlns="http://www.w3.org/2000/svg"
 xmlns:xlink="http://www.w3.org/1999/xlink"
 width="33px" height="33px"  viewBox="0 0 33 33">
<path fill-rule="evenodd"  fill="#95e1d3"
 d="M32.0,25.999023 C32.0,26.649902 31.581238,27.199463 31.0,27.40625 C31.0,27.40625 31.0,29.089355 31.0,29.089355 C31.581238,29.296143 32.0,29.845703 32.0,30.497803 C32.0,31.325684 31.328308,31.99878 30.5,31.99878 C29.847778,31.99878 29.298462,31.578613 29.091797,30.998047 C29.091797,30.998047 27.408142,30.998047 27.408142,30.998047 C27.201477,31.578613 26.65216,31.99878 25.999939,31.99878 C25.347778,31.99878 24.798462,31.578613 24.591858,30.998047 C24.591858,30.998047 22.908081,30.998047 22.908081,30.998047 C22.701416,31.578613 22.1521,31.99878 21.5,31.99878 C20.84784,31.99878 20.298523,31.578613 20.091858,30.998047 C20.091858,30.998047 18.408203,30.998047 18.408203,30.998047 C18.201477,31.578613 17.65216,31.99878 17.0,31.99878 C16.347778,31.99878 15.79834,31.578613 15.591797,30.998047 C15.591797,30.998047 13.908142,30.998047 13.908142,30.998047 C13.701538,31.578613 13.152161,31.99878 12.499939,31.99878 C11.847839,31.99878 11.298401,31.578613 11.091858,30.998047 C11.091858,30.998047 9.408081,30.998047 9.408081,30.998047 C9.201538,31.578613 8.6521,31.99878 7.999878,31.99878 C7.3477783,31.99878 6.798462,31.578613 6.591797,30.998047 C6.591797,30.998047 4.908142,30.998047 4.908142,30.998047 C4.701477,31.578613 4.1521606,31.99878 3.499939,31.99878 C2.6716309,31.99878 2.0,31.325684 2.0,30.497803 C2.0,29.845703 2.4187012,29.296143 3.0,29.089355 C3.0,29.089355 3.0,27.40625 3.0,27.40625 C2.4187012,27.199463 2.0,26.649902 2.0,25.999023 C2.0,25.34497 2.4187012,24.79663 3.0,24.589844 C3.0,24.589844 3.0,22.906738 3.0,22.906738 C2.4187012,22.69873 2.0,22.150146 2.0,21.498291 C2.0,20.84668 2.4187012,20.29663 3.0,20.0896 C3.0,20.0896 3.0,18.405762 3.0,18.405762 C2.4187012,18.200195 2.0,17.650635 2.0,16.998535 C2.0,16.346436 2.4187012,15.796875 3.0,15.588867 C3.0,15.588867 3.0,13.905762 3.0,13.905762 C2.4187012,13.700195 2.0,13.150635 2.0,12.498535 C2.0,11.845703 2.4187012,11.296143 3.0,11.090576 C3.0,11.090576 3.0,9.40625 3.0,9.40625 C2.4187012,9.199463 2.0,8.649902 2.0,7.9978027 C2.0,7.3461914 2.4187012,6.7961426 3.0,6.590332 C3.0,6.590332 3.0,4.9055176 3.0,4.9055176 C2.4187012,4.699707 2.0,4.1501465 2.0,3.4980469 C2.0,2.6689453 2.6716309,1.9985352 3.499939,1.9985352 C4.1521606,1.9985352 4.701477,2.4162598 4.908142,2.9987793 C4.908142,2.9987793 6.591797,2.9987793 6.591797,2.9987793 C6.798462,2.4162598 7.3477783,1.9985352 7.999878,1.9985352 C8.6521,1.9985352 9.201538,2.4162598 9.408081,2.9987793 C9.408081,2.9987793 11.091858,2.9987793 11.091858,2.9987793 C11.298401,2.4162598 11.847839,1.9985352 12.499939,1.9985352 C13.152161,1.9985352 13.701538,2.4162598 13.908142,2.9987793 C13.908142,2.9987793 15.591797,2.9987793 15.591797,2.9987793 C15.79834,2.4162598 16.347778,1.9985352 17.0,1.9985352 C17.65216,1.9985352 18.201477,2.4162598 18.408203,2.9987793 C18.408203,2.9987793 20.091858,2.9987793 20.091858,2.9987793 C20.298523,2.4162598 20.84784,1.9985352 21.5,1.9985352 C22.1521,1.9985352 22.701416,2.4162598 22.908081,2.9987793 C22.908081,2.9987793 24.591858,2.9987793 24.591858,2.9987793 C24.798462,2.4162598 25.347778,1.9985352 25.999939,1.9985352 C26.65216,1.9985352 27.201477,2.4162598 27.408142,2.9987793 C27.408142,2.9987793 29.091797,2.9987793 29.091797,2.9987793 C29.298462,2.4162598 29.847778,1.9985352 30.5,1.9985352 C31.328308,1.9985352 32.0,2.6689453 32.0,3.4980469 C32.0,4.1501465 31.581238,4.699707 31.0,4.9055176 C31.0,4.9055176 31.0,6.590332 31.0,6.590332 C31.581238,6.7961426 32.0,7.3461914 32.0,7.9978027 C32.0,8.649902 31.581238,9.199463 31.0,9.40625 C31.0,9.40625 31.0,11.090576 31.0,11.090576 C31.581238,11.296143 32.0,11.845703 32.0,12.498535 C32.0,13.150635 31.581238,13.700195 31.0,13.905762 C31.0,13.905762 31.0,15.588867 31.0,15.588867 C31.581238,15.796875 32.0,16.346436 32.0,16.998535 C32.0,17.650635 31.581238,18.200195 31.0,18.405762 C31.0,18.405762 31.0,20.0896 31.0,20.0896 C31.581238,20.29663 32.0,20.84668 32.0,21.498291 C32.0,22.150146 31.581238,22.69873 31.0,22.906738 C31.0,22.906738 31.0,24.589844 31.0,24.589844 C31.581238,24.79663 32.0,25.34497 32.0,25.999023 ZM28.000061,5.9973145 C28.000061,5.9973145 6.000061,5.9973145 6.000061,5.9973145 C6.000061,5.9973145 6.000061,27.998047 6.000061,27.998047 C6.000061,27.998047 28.000061,27.998047 28.000061,27.998047 C28.000061,27.998047 28.000061,5.9973145 28.000061,5.9973145 ZM15.0,21.997559 C15.0,21.997559 21.999878,13.498535 21.999878,13.498535 C21.999878,13.498535 26.499939,20.498535 26.499939,20.498535 C26.499939,20.498535 26.499939,26.498291 26.499939,26.498291 C26.499939,26.498291 7.499878,26.498291 7.499878,26.498291 C7.499878,26.498291 13.500061,20.498535 13.500061,20.498535 C13.500061,20.498535 15.0,21.997559 15.0,21.997559 ZM11.999939,14.998291 C10.343079,14.998291 9.0,13.654785 9.0,11.99707 C9.0,10.340088 10.343079,8.998535 11.999939,8.998535 C13.656799,8.998535 15.0,10.340088 15.0,11.99707 C15.0,13.654785 13.656799,14.998291 11.999939,14.998291 Z"/>
</svg>