<svg xmlns="http://www.w3.org/2000/svg"
 xmlns:xlink="http://www.w3.org/1999/xlink"
 width="35px" height="35px"  viewBox="0 0 35 35">
<path fill-rule="evenodd"  fill="#95e1d3"
 d="M17.0,33.998535 C8.163574,33.998535 1.0,26.83496 1.0,17.997559 C1.0,9.162109 8.163574,1.9980469 17.0,1.9980469 C25.836548,1.9980469 33.00006,9.162109 33.00006,17.997559 C33.00006,26.83496 25.836548,33.998535 17.0,33.998535 ZM17.0,4.998535 C9.8203125,4.998535 4.000061,10.817383 4.000061,17.997559 C4.000061,25.177246 9.8203125,30.998047 17.0,30.998047 C24.179688,30.998047 30.0,25.177246 30.0,17.997559 C30.0,10.817383 24.179688,4.998535 17.0,4.998535 ZM17.0,27.49707 C11.753235,27.49707 7.5,23.244629 7.5,17.997559 C7.5,12.751465 11.753235,8.497559 17.0,8.497559 C22.246643,8.497559 26.499939,12.751465 26.499939,17.997559 C26.499939,23.244629 22.246643,27.49707 17.0,27.49707 ZM17.0,11.497559 C13.410095,11.497559 10.5,14.408203 10.5,17.997559 C10.5,21.586914 13.410095,24.498535 17.0,24.498535 C20.589783,24.498535 23.5,21.586914 23.5,17.997559 C23.5,14.408203 20.589783,11.497559 17.0,11.497559 ZM17.0,20.998535 C15.34314,20.998535 14.0,19.655273 14.0,17.997559 C14.0,16.34082 15.34314,14.998535 17.0,14.998535 C18.65686,14.998535 19.999939,16.34082 19.999939,17.997559 C19.999939,19.655273 18.65686,20.998535 17.0,20.998535 Z"/>
</svg>