<svg xmlns="http://www.w3.org/2000/svg"
 xmlns:xlink="http://www.w3.org/1999/xlink"
 width="66px" height="64px"  viewBox="0 0 66 64">
<path fill-rule="evenodd"  fill="#95e1d3"
 d="M61.00006,37.998047 C61.00006,37.998047 60.100098,37.998047 60.100098,37.998047 C60.100098,37.998047 60.100098,37.998047 60.100098,37.998047 C60.100098,37.998047 59.0,37.998047 59.0,37.998047 C59.0,37.998047 59.0,42.999023 59.0,42.999023 C59.0,42.999023 59.0,42.999023 59.0,42.999023 C59.0,43.20459 58.979004,43.407715 58.939087,43.60254 C58.911133,43.739258 58.862854,43.86621 58.817078,43.995605 C58.797302,44.052734 58.78711,44.112305 58.76422,44.16504 C58.7157,44.280273 58.64923,44.385254 58.587524,44.4917 C58.55249,44.552246 58.52655,44.617676 58.48761,44.67627 C58.389526,44.819824 58.275757,44.953613 58.15448,45.0791 C58.142456,45.092285 58.133667,45.10742 58.121277,45.11914 C57.58673,45.654785 56.850403,45.984863 56.03723,45.99463 C56.024536,45.99463 56.012695,45.99756 56.0,45.99756 C56.0,45.99756 56.0,45.99756 56.0,45.99756 C56.0,45.99756 56.0,45.99756 56.0,45.99756 C55.17157,45.99756 54.42151,45.663086 53.8786,45.11914 C53.8786,45.11914 46.757446,37.998047 46.757446,37.998047 C46.757446,37.998047 46.400146,37.998047 46.400146,37.998047 C46.400146,37.998047 46.400146,37.998047 46.400146,37.998047 C46.400146,37.998047 18.999878,37.998047 18.999878,37.998047 C17.34314,37.998047 16.000061,36.655273 16.000061,34.998047 C16.000061,34.998047 16.000061,4.998535 16.000061,4.998535 C16.000061,3.3413086 17.34314,1.9975586 18.999878,1.9975586 C18.999878,1.9975586 61.00006,1.9975586 61.00006,1.9975586 C62.6568,1.9975586 64.0,3.3413086 64.0,4.998535 C64.0,4.998535 64.0,34.998047 64.0,34.998047 C64.0,36.655273 62.6568,37.998047 61.00006,37.998047 ZM45.51471,40.998535 C45.51471,40.998535 51.841248,47.324707 51.841248,47.324707 C51.841248,47.324707 51.849365,47.316406 51.849365,47.316406 C52.927612,48.353516 54.38617,48.998535 56.0,48.998535 C56.0,48.998535 56.0,50.999023 56.0,50.999023 C56.0,52.655273 54.6568,53.99756 52.99994,53.99756 C52.99994,53.99756 52.99994,53.99756 52.99994,53.99756 C52.99994,53.99756 31.900024,53.99756 31.900024,53.99756 C31.900024,53.99756 31.900024,53.99756 31.900024,53.99756 C31.900024,53.99756 25.0,53.99756 25.0,53.99756 C25.0,53.99756 25.0,53.99756 25.0,53.99756 C25.0,53.99756 21.999939,53.99756 21.999939,53.99756 C21.999939,53.99756 21.999939,53.99756 21.999939,53.99756 C21.999939,53.99756 21.242615,53.99756 21.242615,53.99756 C21.242615,53.99756 13.121277,62.120117 13.121277,62.120117 C12.578491,62.662598 11.828369,62.998535 11.0,62.998535 C11.0,62.998535 11.0,62.998535 11.0,62.998535 C11.0,62.998535 11.0,62.998535 11.0,62.998535 C10.987183,62.998535 10.975525,62.995117 10.96283,62.995117 C10.149475,62.984375 9.413269,62.65381 8.878723,62.120117 C8.866394,62.106934 8.857544,62.09131 8.845581,62.078613 C8.724121,61.9541 8.610474,61.820312 8.51239,61.674805 C8.473389,61.618164 8.44751,61.552734 8.412598,61.4917 C8.350708,61.384277 8.284302,61.280273 8.23584,61.166504 C8.21283,61.111816 8.202759,61.051758 8.182922,60.995605 C8.137268,60.8667 8.088867,60.739746 8.060913,60.60254 C8.020996,60.408203 8.000061,60.205566 8.000061,59.99756 C8.000061,59.99756 8.000061,59.99756 8.000061,59.99756 C8.000061,59.99756 8.000061,53.99756 8.000061,53.99756 C8.000061,53.99756 7.499939,53.99756 7.499939,53.99756 C7.499939,53.99756 7.499939,53.99756 7.499939,53.99756 C7.499939,53.99756 3.9959106,53.99756 3.9959106,53.99756 C2.3409424,53.995117 1.000061,52.654297 1.000061,50.999023 C1.000061,50.999023 1.000061,16.999023 1.000061,16.999023 C1.000061,16.998047 1.000061,16.998047 1.000061,16.998047 C1.000061,15.340332 2.3430176,13.998047 4.0,13.998047 C4.0,13.998047 13.000122,13.998047 13.000122,13.998047 C13.000122,13.998047 13.000122,34.998047 13.000122,34.998047 C13.000122,38.311523 15.686279,40.998535 18.999878,40.998535 C18.999878,40.998535 45.51471,40.998535 45.51471,40.998535 Z"/>
</svg>